<svg width="428" height="95" viewBox="0 0 428 95" fill="none" opacity="0.08" xmlns="http://www.w3.org/2000/svg">
<mask id="mask0_730_15566" style="mask-type:alpha" maskUnits="userSpaceOnUse" x="0" y="0" width="48" height="48">
<rect width="47.5" height="47.5" fill="#D9D9D9"/>
</mask>
<g mask="url(#mask0_730_15566)">
<path d="M37.6035 17.8128L35.1296 12.3701L29.6868 9.89616L35.1296 7.4222L37.6035 1.97949L40.0775 7.4222L45.5202 9.89616L40.0775 12.3701L37.6035 17.8128ZM37.6035 45.5212L35.1296 40.0784L29.6868 37.6045L35.1296 35.1305L37.6035 29.6878L40.0775 35.1305L45.5202 37.6045L40.0775 40.0784L37.6035 45.5212ZM17.8118 39.5837L12.8639 28.6982L1.97852 23.7503L12.8639 18.8024L17.8118 7.91699L22.7598 18.8024L33.6452 23.7503L22.7598 28.6982L17.8118 39.5837ZM17.8118 29.9847L19.791 25.7295L24.0462 23.7503L19.791 21.7712L17.8118 17.5159L15.8327 21.7712L11.5775 23.7503L15.8327 25.7295L17.8118 29.9847Z" fill="#2A2A2A"/>
</g>
<mask id="mask1_730_15566" style="mask-type:alpha" maskUnits="userSpaceOnUse" x="380" y="0" width="48" height="48">
<rect width="47.5" height="47.5" transform="matrix(-1 0 0 1 427.5 0)" fill="#D9D9D9"/>
</mask>
<g mask="url(#mask1_730_15566)">
<path d="M389.896 17.8128L392.37 12.3701L397.813 9.89616L392.37 7.4222L389.896 1.97949L387.423 7.4222L381.98 9.89616L387.423 12.3701L389.896 17.8128ZM389.896 45.5212L392.37 40.0784L397.813 37.6045L392.37 35.1305L389.896 29.6878L387.423 35.1305L381.98 37.6045L387.423 40.0784L389.896 45.5212ZM409.688 39.5837L414.636 28.6982L425.521 23.7503L414.636 18.8024L409.688 7.91699L404.74 18.8024L393.855 23.7503L404.74 28.6982L409.688 39.5837ZM409.688 29.9847L407.709 25.7295L403.454 23.7503L407.709 21.7712L409.688 17.5159L411.667 21.7712L415.923 23.7503L411.667 25.7295L409.688 29.9847Z" fill="#2A2A2A"/>
</g>
<mask id="mask2_730_15566" style="mask-type:alpha" maskUnits="userSpaceOnUse" x="95" y="0" width="48" height="48">
<rect x="95" width="47.5" height="47.5" fill="#D9D9D9"/>
</mask>
<g mask="url(#mask2_730_15566)">
<path d="M98.959 43.5417L108.855 15.8333L126.667 33.6458L98.959 43.5417ZM105.49 37.0104L119.443 32.0625L110.438 23.0573L105.49 37.0104ZM123.798 24.8385L121.719 22.7604L132.803 11.6771C133.858 10.6215 135.128 10.0938 136.613 10.0938C138.097 10.0938 139.367 10.6215 140.423 11.6771L141.61 12.8646L139.532 14.9427L138.344 13.7552C137.883 13.2934 137.305 13.0625 136.613 13.0625C135.92 13.0625 135.343 13.2934 134.881 13.7552L123.798 24.8385ZM115.881 16.9219L113.803 14.8438L114.99 13.6563C115.452 13.1944 115.683 12.6337 115.683 11.974C115.683 11.3142 115.452 10.7535 114.99 10.2917L113.704 9.00521L115.782 6.92708L117.068 8.21354C118.124 9.2691 118.652 10.5226 118.652 11.974C118.652 13.4253 118.124 14.6788 117.068 15.7344L115.881 16.9219ZM119.839 20.8802L117.761 18.8021L124.886 11.6771C125.348 11.2153 125.579 10.638 125.579 9.94531C125.579 9.2526 125.348 8.67535 124.886 8.21354L121.719 5.04688L123.798 2.96875L126.964 6.13542C128.02 7.19097 128.548 8.46094 128.548 9.94531C128.548 11.4297 128.02 12.6997 126.964 13.7552L119.839 20.8802ZM127.756 28.7969L125.678 26.7188L128.844 23.5521C129.9 22.4965 131.17 21.9688 132.654 21.9688C134.139 21.9688 135.409 22.4965 136.464 23.5521L139.631 26.7188L137.553 28.7969L134.386 25.6302C133.924 25.1684 133.347 24.9375 132.654 24.9375C131.962 24.9375 131.384 25.1684 130.923 25.6302L127.756 28.7969Z" fill="#2A2A2A"/>
</g>
<mask id="mask3_730_15566" style="mask-type:alpha" maskUnits="userSpaceOnUse" x="285" y="0" width="48" height="48">
<rect width="47.5" height="47.5" transform="matrix(-1 0 0 1 332.5 0)" fill="#D9D9D9"/>
</mask>
<g mask="url(#mask3_730_15566)">
<path d="M328.541 43.5417L318.645 15.8333L300.833 33.6458L328.541 43.5417ZM322.01 37.0104L308.057 32.0625L317.062 23.0573L322.01 37.0104ZM303.702 24.8385L305.781 22.7604L294.697 11.6771C293.642 10.6215 292.372 10.0938 290.887 10.0938C289.403 10.0938 288.133 10.6215 287.077 11.6771L285.89 12.8646L287.968 14.9427L289.156 13.7552C289.617 13.2934 290.195 13.0625 290.887 13.0625C291.58 13.0625 292.157 13.2934 292.619 13.7552L303.702 24.8385ZM311.619 16.9219L313.697 14.8438L312.51 13.6563C312.048 13.1944 311.817 12.6337 311.817 11.974C311.817 11.3142 312.048 10.7535 312.51 10.2917L313.796 9.00521L311.718 6.92708L310.432 8.21354C309.376 9.2691 308.848 10.5226 308.848 11.974C308.848 13.4253 309.376 14.6788 310.432 15.7344L311.619 16.9219ZM307.661 20.8802L309.739 18.8021L302.614 11.6771C302.152 11.2153 301.921 10.638 301.921 9.94531C301.921 9.2526 302.152 8.67535 302.614 8.21354L305.781 5.04688L303.702 2.96875L300.536 6.13542C299.48 7.19097 298.952 8.46094 298.952 9.94531C298.952 11.4297 299.48 12.6997 300.536 13.7552L307.661 20.8802ZM299.744 28.7969L301.822 26.7188L298.656 23.5521C297.6 22.4965 296.33 21.9688 294.846 21.9688C293.361 21.9688 292.091 22.4965 291.036 23.5521L287.869 26.7188L289.947 28.7969L293.114 25.6302C293.576 25.1684 294.153 24.9375 294.846 24.9375C295.538 24.9375 296.116 25.1684 296.577 25.6302L299.744 28.7969Z" fill="#2A2A2A"/>
</g>
<mask id="mask4_730_15566" style="mask-type:alpha" maskUnits="userSpaceOnUse" x="47" y="47" width="48" height="48">
<rect x="47.5" y="47.5" width="47.5" height="47.5" fill="#D9D9D9"/>
</mask>
<g mask="url(#mask4_730_15566)">
<path d="M71.2507 89.0628L68.3809 86.4899C65.0493 83.4882 62.2949 80.8988 60.1178 78.7217C57.9408 76.5446 56.209 74.5902 54.9225 72.8584C53.6361 71.1266 52.7372 69.535 52.2259 68.0837C51.7146 66.6323 51.459 65.1479 51.459 63.6305C51.459 60.5298 52.498 57.9404 54.5762 55.8623C56.6543 53.7842 59.2437 52.7451 62.3444 52.7451C64.0597 52.7451 65.6925 53.108 67.2428 53.8337C68.7932 54.5594 70.1291 55.5819 71.2507 56.9014C72.3722 55.5819 73.7081 54.5594 75.2585 53.8337C76.8088 53.108 78.4416 52.7451 80.1569 52.7451C83.2576 52.7451 85.847 53.7842 87.9251 55.8623C90.0033 57.9404 91.0423 60.5298 91.0423 63.6305C91.0423 65.1479 90.7867 66.6323 90.2754 68.0837C89.7641 69.535 88.8652 71.1266 87.5788 72.8584C86.2923 74.5902 84.5605 76.5446 82.3835 78.7217C80.2064 80.8988 77.452 83.4882 74.1204 86.4899L71.2507 89.0628ZM71.2507 83.7191C74.4173 80.8823 77.0232 78.4495 79.0684 76.4209C81.1135 74.3923 82.7298 72.6275 83.9173 71.1266C85.1048 69.6258 85.9295 68.2898 86.3913 67.1188C86.8531 65.9478 87.084 64.785 87.084 63.6305C87.084 61.6514 86.4243 60.0021 85.1048 58.6826C83.7854 57.3632 82.1361 56.7035 80.1569 56.7035C78.6066 56.7035 77.1717 57.1405 75.8522 58.0146C74.5328 58.8888 73.6257 60.0021 73.1309 61.3545H69.3704C68.8757 60.0021 67.9685 58.8888 66.6491 58.0146C65.3296 57.1405 63.8947 56.7035 62.3444 56.7035C60.3652 56.7035 58.7159 57.3632 57.3965 58.6826C56.077 60.0021 55.4173 61.6514 55.4173 63.6305C55.4173 64.785 55.6482 65.9478 56.11 67.1188C56.5718 68.2898 57.3965 69.6258 58.584 71.1266C59.7715 72.6275 61.3878 74.3923 63.4329 76.4209C65.4781 78.4495 68.084 80.8823 71.2507 83.7191Z" fill="#2A2A2A"/>
</g>
<mask id="mask5_730_15566" style="mask-type:alpha" maskUnits="userSpaceOnUse" x="332" y="47" width="48" height="48">
<rect x="332.5" y="47.5" width="47.5" height="47.5" fill="#D9D9D9"/>
</mask>
<g mask="url(#mask5_730_15566)">
<path d="M356.251 89.0628L353.381 86.4899C350.049 83.4882 347.295 80.8988 345.118 78.7217C342.941 76.5446 341.209 74.5902 339.923 72.8584C338.636 71.1266 337.737 69.535 337.226 68.0837C336.715 66.6323 336.459 65.1479 336.459 63.6305C336.459 60.5298 337.498 57.9404 339.576 55.8623C341.654 53.7842 344.244 52.7451 347.344 52.7451C349.06 52.7451 350.692 53.108 352.243 53.8337C353.793 54.5594 355.129 55.5819 356.251 56.9014C357.372 55.5819 358.708 54.5594 360.258 53.8337C361.809 53.108 363.442 52.7451 365.157 52.7451C368.258 52.7451 370.847 53.7842 372.925 55.8623C375.003 57.9404 376.042 60.5298 376.042 63.6305C376.042 65.1479 375.787 66.6323 375.275 68.0837C374.764 69.535 373.865 71.1266 372.579 72.8584C371.292 74.5902 369.561 76.5446 367.383 78.7217C365.206 80.8988 362.452 83.4882 359.12 86.4899L356.251 89.0628ZM356.251 83.7191C359.417 80.8823 362.023 78.4495 364.068 76.4209C366.113 74.3923 367.73 72.6275 368.917 71.1266C370.105 69.6258 370.929 68.2898 371.391 67.1188C371.853 65.9478 372.084 64.785 372.084 63.6305C372.084 61.6514 371.424 60.0021 370.105 58.6826C368.785 57.3632 367.136 56.7035 365.157 56.7035C363.607 56.7035 362.172 57.1405 360.852 58.0146C359.533 58.8888 358.626 60.0021 358.131 61.3545H354.37C353.876 60.0021 352.969 58.8888 351.649 58.0146C350.33 57.1405 348.895 56.7035 347.344 56.7035C345.365 56.7035 343.716 57.3632 342.396 58.6826C341.077 60.0021 340.417 61.6514 340.417 63.6305C340.417 64.785 340.648 65.9478 341.11 67.1188C341.572 68.2898 342.396 69.6258 343.584 71.1266C344.771 72.6275 346.388 74.3923 348.433 76.4209C350.478 78.4495 353.084 80.8823 356.251 83.7191Z" fill="#2A2A2A"/>
</g>
<mask id="mask6_730_15566" style="mask-type:alpha" maskUnits="userSpaceOnUse" x="142" y="47" width="48" height="48">
<rect x="142.5" y="47.5" width="47.5" height="47.5" fill="#D9D9D9"/>
</mask>
<g mask="url(#mask6_730_15566)">
<path d="M150.417 81.1455V85.1038H182.084V81.1455H150.417ZM150.417 59.3747H154.771C154.607 59.0778 154.499 58.7644 154.45 58.4346C154.4 58.1047 154.376 57.7584 154.376 57.3955C154.376 55.7462 154.953 54.3443 156.107 53.1898C157.262 52.0353 158.664 51.458 160.313 51.458C161.303 51.458 162.218 51.7137 163.059 52.2249C163.9 52.7362 164.634 53.3712 165.261 54.1299L166.251 55.4163L167.24 54.1299C167.834 53.3382 168.56 52.695 169.417 52.2002C170.275 51.7054 171.199 51.458 172.188 51.458C173.837 51.458 175.239 52.0353 176.394 53.1898C177.548 54.3443 178.126 55.7462 178.126 57.3955C178.126 57.7584 178.101 58.1047 178.051 58.4346C178.002 58.7644 177.895 59.0778 177.73 59.3747H182.084C183.173 59.3747 184.104 59.7623 184.88 60.5374C185.655 61.3126 186.042 62.2445 186.042 63.333V85.1038C186.042 86.1924 185.655 87.1242 184.88 87.8994C184.104 88.6746 183.173 89.0622 182.084 89.0622H150.417C149.329 89.0622 148.397 88.6746 147.622 87.8994C146.847 87.1242 146.459 86.1924 146.459 85.1038V63.333C146.459 62.2445 146.847 61.3126 147.622 60.5374C148.397 59.7623 149.329 59.3747 150.417 59.3747ZM150.417 75.208H182.084V63.333H171.99L176.146 68.9736L172.98 71.2497L166.251 62.1455L159.521 71.2497L156.355 68.9736L160.412 63.333H150.417V75.208ZM160.313 59.3747C160.874 59.3747 161.344 59.185 161.723 58.8057C162.103 58.4263 162.292 57.9563 162.292 57.3955C162.292 56.8347 162.103 56.3647 161.723 55.9854C161.344 55.606 160.874 55.4163 160.313 55.4163C159.752 55.4163 159.282 55.606 158.903 55.9854C158.524 56.3647 158.334 56.8347 158.334 57.3955C158.334 57.9563 158.524 58.4263 158.903 58.8057C159.282 59.185 159.752 59.3747 160.313 59.3747ZM172.188 59.3747C172.749 59.3747 173.219 59.185 173.598 58.8057C173.978 58.4263 174.167 57.9563 174.167 57.3955C174.167 56.8347 173.978 56.3647 173.598 55.9854C173.219 55.606 172.749 55.4163 172.188 55.4163C171.627 55.4163 171.157 55.606 170.778 55.9854C170.399 56.3647 170.209 56.8347 170.209 57.3955C170.209 57.9563 170.399 58.4263 170.778 58.8057C171.157 59.185 171.627 59.3747 172.188 59.3747Z" fill="#2A2A2A"/>
</g>
<mask id="mask7_730_15566" style="mask-type:alpha" maskUnits="userSpaceOnUse" x="237" y="47" width="48" height="48">
<rect x="237.5" y="47.5" width="47.5" height="47.5" fill="#D9D9D9"/>
</mask>
<g mask="url(#mask7_730_15566)">
<path d="M245.417 91.0413C244.856 91.0413 244.386 90.8517 244.007 90.4723C243.627 90.093 243.438 89.6229 243.438 89.0622V79.1663C243.438 78.0778 243.825 77.1459 244.6 76.3708C245.375 75.5956 246.307 75.208 247.396 75.208V67.2913C247.396 66.2028 247.783 65.2709 248.559 64.4958C249.334 63.7206 250.266 63.333 251.354 63.333H259.271V60.4632C258.677 60.0674 258.199 59.5891 257.836 59.0283C257.473 58.4676 257.292 57.7913 257.292 56.9997C257.292 56.5049 257.391 56.0183 257.589 55.54C257.786 55.0617 258.083 54.6247 258.479 54.2288L261.25 51.458L264.021 54.2288C264.417 54.6247 264.714 55.0617 264.911 55.54C265.109 56.0183 265.208 56.5049 265.208 56.9997C265.208 57.7913 265.027 58.4676 264.664 59.0283C264.301 59.5891 263.823 60.0674 263.229 60.4632V63.333H271.146C272.234 63.333 273.166 63.7206 273.941 64.4958C274.717 65.2709 275.104 66.2028 275.104 67.2913V75.208C276.193 75.208 277.125 75.5956 277.9 76.3708C278.675 77.1459 279.062 78.0778 279.062 79.1663V89.0622C279.062 89.6229 278.873 90.093 278.493 90.4723C278.114 90.8517 277.644 91.0413 277.083 91.0413H245.417ZM251.354 75.208H271.146V67.2913H251.354V75.208ZM247.396 87.083H275.104V79.1663H247.396V87.083Z" fill="#2A2A2A"/>
</g>
<mask id="mask8_730_15566" style="mask-type:alpha" maskUnits="userSpaceOnUse" x="190" y="0" width="48" height="48">
<rect x="190" width="47.5" height="47.5" fill="#D9D9D9"/>
</mask>
<g mask="url(#mask8_730_15566)">
<path d="M207.516 35.2786L213.751 31.5182L219.985 35.3281L218.352 28.2031L223.844 23.4531L216.62 22.8099L213.751 16.0807L210.881 22.7604L203.657 23.4036L209.149 28.2031L207.516 35.2786ZM201.529 43.5417L204.745 29.638L193.959 20.2865L208.209 19.0495L213.751 5.9375L219.292 19.0495L233.542 20.2865L222.756 29.638L225.972 43.5417L213.751 36.1693L201.529 43.5417Z" fill="#2A2A2A"/>
</g>
</svg>
